{
  "accessors": [
    {
      "bufferView": 2,
      "componentType": 5126,
      "count": 2169,
      "max": [
        22.949140548706055,
        31.69527244567871,
        24.622594833374023
      ],
      "min": [
        -22.784700393676758,
        -2.6600818634033203,
        -24.15925407409668
      ],
      "type": "VEC3"
    },
    {
      "bufferView": 2,
      "byteOffset": 26028,
      "componentType": 5126,
      "count": 2169,
      "max": [
        0.9967522621154785,
        0.9998698234558105,
        0.9995591640472412
      ],
      "min": [
        -0.9967522621154785,
        -0.9995807409286499,
        -0.9981086850166321
      ],
      "type": "VEC3"
    },
    {
      "bufferView": 1,
      "componentType": 5126,
      "count": 2169,
      "max": [
        0.9818708896636963,
        0.9944977164268494
      ],
      "min": [
        0.008744930848479271,
        0.0082816481590271
      ],
      "type": "VEC2"
    },
    {
      "bufferView": 1,
      "byteOffset": 17352,
      "componentType": 5126,
      "count": 2169,
      "max": [
        0.9818708896636963,
        0.9944977164268494
      ],
      "min": [
        0.008744930848479271,
        0.0082816481590271
      ],
      "type": "VEC2"
    },
    {
      "bufferView": 1,
      "byteOffset": 34704,
      "componentType": 5126,
      "count": 2169,
      "max": [
        0.9818708896636963,
        0.9944977164268494
      ],
      "min": [
        0.008744930848479271,
        0.0082816481590271
      ],
      "type": "VEC2"
    },
    {
      "bufferView": 0,
      "componentType": 5125,
      "count": 10470,
      "type": "SCALAR"
    }
  ],
  "asset": {
    "extras": {
      "author": "dini.hadiarti (https://sketchfab.com/dini.hadiarti)",
      "license": "CC-BY-4.0 (http://creativecommons.org/licenses/by/4.0/)",
      "source": "https://sketchfab.com/3d-models/chitin-on-crab-ff42c79384c04271aa97b72f384b304a",
      "title": "Chitin on Crab"
    },
    "generator": "Sketchfab-15.27.0",
    "version": "2.0"
  },
  "bufferViews": [
    {
      "buffer": 0,
      "byteLength": 41880,
      "name": "floatBufferViews",
      "target": 34963
    },
    {
      "buffer": 0,
      "byteLength": 52056,
      "byteOffset": 41880,
      "byteStride": 8,
      "name": "floatBufferViews",
      "target": 34962
    },
    {
      "buffer": 0,
      "byteLength": 52056,
      "byteOffset": 93936,
      "byteStride": 12,
      "name": "floatBufferViews",
      "target": 34962
    }
  ],
  "buffers": [
    {
      "byteLength": 145992,
      "uri": "scene.bin"
    }
  ],
  "extensionsRequired": [
    "KHR_materials_pbrSpecularGlossiness"
  ],
  "extensionsUsed": [
    "KHR_materials_pbrSpecularGlossiness"
  ],
  "images": [
    {
      "uri": "textures/material_diffuse.png"
    },
    {
      "uri": "textures/material_specularGlossiness.png"
    }
  ],
  "materials": [
    {
      "doubleSided": true,
      "extensions": {
        "KHR_materials_pbrSpecularGlossiness": {
          "diffuseFactor": [
            1.0,
            1.0,
            1.0,
            1.0
          ],
          "diffuseTexture": {
            "index": 0
          },
          "glossinessFactor": 1.0,
          "specularFactor": [
            1.0,
            1.0,
            1.0
          ],
          "specularGlossinessTexture": {
            "index": 1
          }
        }
      },
      "name": "material"
    }
  ],
  "meshes": [
    {
      "name": "Object_0",
      "primitives": [
        {
          "attributes": {
            "NORMAL": 1,
            "POSITION": 0,
            "TEXCOORD_0": 2,
            "TEXCOORD_1": 3,
            "TEXCOORD_2": 4
          },
          "indices": 5,
          "material": 0,
          "mode": 4
        }
      ]
    }
  ],
  "nodes": [
    {
      "children": [
        1
      ],
      "matrix": [
        1.0,
        0.0,
        0.0,
        0.0,
        0.0,
        2.220446049250313e-16,
        -1.0,
        0.0,
        0.0,
        1.0,
        2.220446049250313e-16,
        0.0,
        0.0,
        0.0,
        0.0,
        1.0
      ],
      "name": "Sketchfab_model"
    },
    {
      "children": [
        2
      ],
      "name": "root"
    },
    {
      "children": [
        3
      ],
      "matrix": [
        1.0,
        0.0,
        0.0,
        0.0,
        0.0,
        2.220446049250313e-16,
        1.0,
        0.0,
        0.0,
        -1.0,
        2.220446049250313e-16,
        0.0,
        0.0,
        0.0,
        0.0,
        1.0
      ],
      "name": "GLTF_SceneRootNode"
    },
    {
      "children": [
        4
      ],
      "name": "root_0"
    },
    {
      "children": [
        5
      ],
      "matrix": [
        0.011195210739970207,
        0.0,
        0.0,
        0.0,
        0.0,
        0.011195210739970207,
        0.0,
        0.0,
        0.0,
        0.0,
        0.011195210739970207,
        0.0,
        -0.0009204318630509079,
        -0.16252779960632324,
        0.27046695351600647,
        1.0
      ],
      "name": "node_id30_1"
    },
    {
      "mesh": 0,
      "name": "Object_5"
    }
  ],
  "samplers": [
    {
      "magFilter": 9729,
      "minFilter": 9987,
      "wrapS": 10497,
      "wrapT": 10497
    }
  ],
  "scene": 0,
  "scenes": [
    {
      "name": "Sketchfab_Scene",
      "nodes": [
        0
      ]
    }
  ],
  "textures": [
    {
      "sampler": 0,
      "source": 0
    },
    {
      "sampler": 0,
      "source": 1
    }
  ]
}
