{
  "accessors": [
    {
      "bufferView": 1,
      "componentType": 5126,
      "count": 5724,
      "max": [
        7.072372913360596,
        14.881746292114258,
        4.521205902099609
      ],
      "min": [
        -16.185583114624023,
        -14.881746292114258,
        -4.660737991333008
      ],
      "type": "VEC3"
    },
    {
      "bufferView": 1,
      "byteOffset": 68688,
      "componentType": 5126,
      "count": 5724,
      "max": [
        0.9965848326683044,
        0.9998343586921692,
        0.9999553561210632
      ],
      "min": [
        -0.9982628226280212,
        -0.999834418296814,
        -0.999914288520813
      ],
      "type": "VEC3"
    },
    {
      "bufferView": 0,
      "componentType": 5125,
      "count": 8472,
      "type": "SCALAR"
    },
    {
      "bufferView": 1,
      "byteOffset": 137376,
      "componentType": 5126,
      "count": 1452,
      "max": [
        6.835841178894043,
        14.21268081665039,
        4.159937858581543
      ],
      "min": [
        -16.185583114624023,
        -14.21268081665039,
        -4.62602424621582
      ],
      "type": "VEC3"
    },
    {
      "bufferView": 1,
      "byteOffset": 154800,
      "componentType": 5126,
      "count": 1452,
      "max": [
        0.9999991059303284,
        0.99965500831604,
        0.9979689121246338
      ],
      "min": [
        -0.8701657056808472,
        -0.99965500831604,
        -0.9979450702667236
      ],
      "type": "VEC3"
    },
    {
      "bufferView": 0,
      "byteOffset": 33888,
      "componentType": 5125,
      "count": 2136,
      "type": "SCALAR"
    },
    {
      "bufferView": 1,
      "byteOffset": 172224,
      "componentType": 5126,
      "count": 960,
      "max": [
        6.936911106109619,
        0.6160482168197632,
        2.263690948486328
      ],
      "min": [
        6.310651779174805,
        -0.6160482168197632,
        1.7183810472488403
      ],
      "type": "VEC3"
    },
    {
      "bufferView": 1,
      "byteOffset": 183744,
      "componentType": 5126,
      "count": 960,
      "max": [
        0.9810442924499512,
        0.9822466373443604,
        0.8659271597862244
      ],
      "min": [
        -0.9348099827766418,
        -0.9822466373443604,
        -0.9201488494873047
      ],
      "type": "VEC3"
    },
    {
      "bufferView": 0,
      "byteOffset": 42432,
      "componentType": 5125,
      "count": 1260,
      "type": "SCALAR"
    }
  ],
  "asset": {
    "extras": {
      "author": "Liormax (https://sketchfab.com/liorvisbal)",
      "license": "CC-BY-4.0 (http://creativecommons.org/licenses/by/4.0/)",
      "source": "https://sketchfab.com/3d-models/lp-dragon-a97a1fa87bab4ba7b1169fb13f650942",
      "title": "LP Dragon"
    },
    "generator": "Sketchfab-12.66.0",
    "version": "2.0"
  },
  "bufferViews": [
    {
      "buffer": 0,
      "byteLength": 47472,
      "name": "floatBufferViews",
      "target": 34963
    },
    {
      "buffer": 0,
      "byteLength": 195264,
      "byteOffset": 47472,
      "byteStride": 12,
      "name": "floatBufferViews",
      "target": 34962
    }
  ],
  "buffers": [
    {
      "byteLength": 242736,
      "uri": "scene.bin"
    }
  ],
  "materials": [
    {
      "doubleSided": true,
      "name": "Material.001",
      "pbrMetallicRoughness": {
        "baseColorFactor": [
          0.0065982759,
          0.0065578728,
          0.0065578728,
          1.0
        ],
        "metallicFactor": 0.0,
        "roughnessFactor": 0.9577051495
      }
    },
    {
      "doubleSided": true,
      "name": "Material.002",
      "pbrMetallicRoughness": {
        "baseColorFactor": [
          0.0392579723,
          0.4039523292,
          0.2498085632,
          1.0
        ],
        "metallicFactor": 0.0,
        "roughnessFactor": 0.9577051495
      }
    },
    {
      "doubleSided": true,
      "name": "Material.003",
      "pbrMetallicRoughness": {
        "metallicFactor": 0.0,
        "roughnessFactor": 0.9577051495
      }
    }
  ],
  "meshes": [
    {
      "name": "Cube_Material.001_0",
      "primitives": [
        {
          "attributes": {
            "NORMAL": 1,
            "POSITION": 0
          },
          "indices": 2,
          "material": 0,
          "mode": 4
        }
      ]
    },
    {
      "name": "Cube_Material.002_0",
      "primitives": [
        {
          "attributes": {
            "NORMAL": 4,
            "POSITION": 3
          },
          "indices": 5,
          "material": 1,
          "mode": 4
        }
      ]
    },
    {
      "name": "Cube_Material.003_0",
      "primitives": [
        {
          "attributes": {
            "NORMAL": 7,
            "POSITION": 6
          },
          "indices": 8,
          "material": 2,
          "mode": 4
        }
      ]
    }
  ],
  "nodes": [
    {
      "children": [
        1
      ],
      "matrix": [
        -1.0,
        -1.6081226229577284e-16,
        -2.8327693431939995e-16,
        0.0,
        -2.832769343193999e-16,
        -2.220446049250313e-16,
        1.0,
        0.0,
        -1.6081226229577292e-16,
        1.0,
        2.2204460492503128e-16,
        0.0,
        -7.987566947937012,
        3.8868885052830565e-14,
        -177.04989624023438,
        1.0
      ],
      "name": "Sketchfab_model"
    },
    {
      "children": [
        2
      ],
      "matrix": [
        1.0,
        0.0,
        0.0,
        0.0,
        0.0,
        0.0,
        1.0,
        0.0,
        0.0,
        -1.0,
        0.0,
        0.0,
        0.0,
        0.0,
        0.0,
        1.0
      ],
      "name": "b223199f1a914e339416499881665b24.fbx"
    },
    {
      "children": [
        3,
        7,
        10
      ],
      "name": "RootNode"
    },
    {
      "children": [
        4,
        5,
        6
      ],
      "matrix": [
        0.8753710941221169,
        3.5253060219679567e-15,
        -31.7410653555398,
        0.0,
        -31.741065355527564,
        -2.7884853236364157e-05,
        -0.8753710941217732,
        0.0,
        -2.787425671447882e-05,
        31.753135681140098,
        -7.687302938014995e-07,
        0.0,
        0.0,
        0.0,
        -233.15306091308594,
        1.0
      ],
      "name": "Cube"
    },
    {
      "mesh": 0,
      "name": "Cube_Material.001_0"
    },
    {
      "mesh": 1,
      "name": "Cube_Material.002_0"
    },
    {
      "mesh": 2,
      "name": "Cube_Material.003_0"
    },
    {
      "children": [
        8
      ],
      "matrix": [
        -29.08647719990347,
        -5.518906457566863,
        -95.51711910171437,
        0.0,
        56.63930913109449,
        79.46723428563203,
        -21.83912397841966,
        0.0,
        77.11008775993375,
        -60.45246356562044,
        -19.98834696773717,
        0.0,
        407.6245422363281,
        590.38623046875,
        -100.54539489746094,
        1.0
      ],
      "name": "Lamp"
    },
    {
      "children": [
        9
      ],
      "matrix": [
        1.0,
        0.0,
        0.0,
        0.0,
        0.0,
        2.220446049250313e-16,
        1.0,
        0.0,
        0.0,
        -1.0,
        2.220446049250313e-16,
        0.0,
        0.0,
        0.0,
        0.0,
        1.0
      ],
      "name": "Object_8"
    },
    {
      "name": "Object_9"
    },
    {
      "children": [
        11
      ],
      "matrix": [
        -65.15583280329096,
        -44.52713576570858,
        -61.41703047373549,
        0.0,
        -32.40134137821245,
        89.53957451233616,
        -30.542088974418615,
        0.0,
        68.59205472129975,
        -1.0718647115348782e-05,
        -72.7676336239627,
        0.0,
        748.1131591796875,
        534.3665161132813,
        650.7639770507813,
        1.0
      ],
      "name": "Camera"
    },
    {
      "name": "Object_11"
    }
  ],
  "scene": 0,
  "scenes": [
    {
      "name": "Sketchfab_Scene",
      "nodes": [
        0
      ]
    }
  ]
}
