{
  "accessors": [
    {
      "bufferView": 2,
      "componentType": 5126,
      "count": 95,
      "max": [
        0.8472578525543213,
        1.3537013530731201,
        0.942838728427887
      ],
      "min": [
        -0.8472578525543213,
        -0.8472578525543213,
        0.4822103679180145
      ],
      "type": "VEC3"
    },
    {
      "bufferView": 2,
      "byteOffset": 1140,
      "componentType": 5126,
      "count": 95,
      "max": [
        1.0,
        0.9292596578598022,
        0.9968743920326233
      ],
      "min": [
        -1.0,
        -1.0,
        -0.996874213218689
      ],
      "type": "VEC3"
    },
    {
      "bufferView": 1,
      "componentType": 5126,
      "count": 95,
      "max": [
        0.7694554328918457,
        0.9689342975616455
      ],
      "min": [
        0.7694554328918457,
        0.9689342975616455
      ],
      "type": "VEC2"
    },
    {
      "bufferView": 0,
      "componentType": 5125,
      "count": 570,
      "type": "SCALAR"
    },
    {
      "bufferView": 2,
      "byteOffset": 2280,
      "componentType": 5126,
      "count": 95,
      "max": [
        0.8472578525543213,
        1.3537013530731201,
        0.942838728427887
      ],
      "min": [
        -0.8472578525543213,
        -0.8472578525543213,
        0.4822103679180145
      ],
      "type": "VEC3"
    },
    {
      "bufferView": 2,
      "byteOffset": 3420,
      "componentType": 5126,
      "count": 95,
      "max": [
        1.0,
        0.9292596578598022,
        0.9968743920326233
      ],
      "min": [
        -1.0,
        -1.0,
        -0.996874213218689
      ],
      "type": "VEC3"
    },
    {
      "bufferView": 1,
      "byteOffset": 760,
      "componentType": 5126,
      "count": 95,
      "max": [
        0.7694554328918457,
        0.9689342975616455
      ],
      "min": [
        0.7694554328918457,
        0.9689342975616455
      ],
      "type": "VEC2"
    },
    {
      "bufferView": 0,
      "byteOffset": 2280,
      "componentType": 5125,
      "count": 570,
      "type": "SCALAR"
    },
    {
      "bufferView": 2,
      "byteOffset": 4560,
      "componentType": 5126,
      "count": 95,
      "max": [
        0.8472578525543213,
        1.3537013530731201,
        0.942838728427887
      ],
      "min": [
        -0.8472578525543213,
        -0.8472578525543213,
        0.4822103679180145
      ],
      "type": "VEC3"
    },
    {
      "bufferView": 2,
      "byteOffset": 5700,
      "componentType": 5126,
      "count": 95,
      "max": [
        1.0,
        0.9292596578598022,
        0.9968743920326233
      ],
      "min": [
        -1.0,
        -1.0,
        -0.996874213218689
      ],
      "type": "VEC3"
    },
    {
      "bufferView": 1,
      "byteOffset": 1520,
      "componentType": 5126,
      "count": 95,
      "max": [
        0.7694554328918457,
        0.9689342975616455
      ],
      "min": [
        0.7694554328918457,
        0.9689342975616455
      ],
      "type": "VEC2"
    },
    {
      "bufferView": 0,
      "byteOffset": 4560,
      "componentType": 5125,
      "count": 570,
      "type": "SCALAR"
    },
    {
      "bufferView": 2,
      "byteOffset": 6840,
      "componentType": 5126,
      "count": 95,
      "max": [
        0.8472578525543213,
        1.3537013530731201,
        0.942838728427887
      ],
      "min": [
        -0.8472578525543213,
        -0.8472578525543213,
        0.4822103679180145
      ],
      "type": "VEC3"
    },
    {
      "bufferView": 2,
      "byteOffset": 7980,
      "componentType": 5126,
      "count": 95,
      "max": [
        1.0,
        0.9292596578598022,
        0.9968743920326233
      ],
      "min": [
        -1.0,
        -1.0,
        -0.996874213218689
      ],
      "type": "VEC3"
    },
    {
      "bufferView": 1,
      "byteOffset": 2280,
      "componentType": 5126,
      "count": 95,
      "max": [
        0.7694554328918457,
        0.9689342975616455
      ],
      "min": [
        0.7694554328918457,
        0.9689342975616455
      ],
      "type": "VEC2"
    },
    {
      "bufferView": 0,
      "byteOffset": 6840,
      "componentType": 5125,
      "count": 570,
      "type": "SCALAR"
    },
    {
      "bufferView": 2,
      "byteOffset": 9120,
      "componentType": 5126,
      "count": 95,
      "max": [
        0.8472578525543213,
        1.3537013530731201,
        0.942838728427887
      ],
      "min": [
        -0.8472578525543213,
        -0.8472578525543213,
        0.4822103679180145
      ],
      "type": "VEC3"
    },
    {
      "bufferView": 2,
      "byteOffset": 10260,
      "componentType": 5126,
      "count": 95,
      "max": [
        1.0,
        0.9292596578598022,
        0.9968743920326233
      ],
      "min": [
        -1.0,
        -1.0,
        -0.996874213218689
      ],
      "type": "VEC3"
    },
    {
      "bufferView": 1,
      "byteOffset": 3040,
      "componentType": 5126,
      "count": 95,
      "max": [
        0.7694554328918457,
        0.9689342975616455
      ],
      "min": [
        0.7694554328918457,
        0.9689342975616455
      ],
      "type": "VEC2"
    },
    {
      "bufferView": 0,
      "byteOffset": 9120,
      "componentType": 5125,
      "count": 570,
      "type": "SCALAR"
    },
    {
      "bufferView": 2,
      "byteOffset": 11400,
      "componentType": 5126,
      "count": 95,
      "max": [
        0.8472578525543213,
        1.3537013530731201,
        0.942838728427887
      ],
      "min": [
        -0.8472578525543213,
        -0.8472578525543213,
        0.4822103679180145
      ],
      "type": "VEC3"
    },
    {
      "bufferView": 2,
      "byteOffset": 12540,
      "componentType": 5126,
      "count": 95,
      "max": [
        1.0,
        0.9292596578598022,
        0.9968743920326233
      ],
      "min": [
        -1.0,
        -1.0,
        -0.996874213218689
      ],
      "type": "VEC3"
    },
    {
      "bufferView": 1,
      "byteOffset": 3800,
      "componentType": 5126,
      "count": 95,
      "max": [
        0.7694554328918457,
        0.9689342975616455
      ],
      "min": [
        0.7694554328918457,
        0.9689342975616455
      ],
      "type": "VEC2"
    },
    {
      "bufferView": 0,
      "byteOffset": 11400,
      "componentType": 5125,
      "count": 570,
      "type": "SCALAR"
    },
    {
      "bufferView": 2,
      "byteOffset": 13680,
      "componentType": 5126,
      "count": 95,
      "max": [
        0.8472578525543213,
        1.3537013530731201,
        0.942838728427887
      ],
      "min": [
        -0.8472578525543213,
        -0.8472578525543213,
        0.4822103679180145
      ],
      "type": "VEC3"
    },
    {
      "bufferView": 2,
      "byteOffset": 14820,
      "componentType": 5126,
      "count": 95,
      "max": [
        1.0,
        0.9292596578598022,
        0.9968743920326233
      ],
      "min": [
        -1.0,
        -1.0,
        -0.996874213218689
      ],
      "type": "VEC3"
    },
    {
      "bufferView": 1,
      "byteOffset": 4560,
      "componentType": 5126,
      "count": 95,
      "max": [
        0.7694554328918457,
        0.9689342975616455
      ],
      "min": [
        0.7694554328918457,
        0.9689342975616455
      ],
      "type": "VEC2"
    },
    {
      "bufferView": 0,
      "byteOffset": 13680,
      "componentType": 5125,
      "count": 570,
      "type": "SCALAR"
    },
    {
      "bufferView": 2,
      "byteOffset": 15960,
      "componentType": 5126,
      "count": 95,
      "max": [
        0.8472578525543213,
        1.3537013530731201,
        0.942838728427887
      ],
      "min": [
        -0.8472578525543213,
        -0.8472578525543213,
        0.4822103679180145
      ],
      "type": "VEC3"
    },
    {
      "bufferView": 2,
      "byteOffset": 17100,
      "componentType": 5126,
      "count": 95,
      "max": [
        1.0,
        0.9292596578598022,
        0.9968743920326233
      ],
      "min": [
        -1.0,
        -1.0,
        -0.996874213218689
      ],
      "type": "VEC3"
    },
    {
      "bufferView": 1,
      "byteOffset": 5320,
      "componentType": 5126,
      "count": 95,
      "max": [
        0.7694554328918457,
        0.9689342975616455
      ],
      "min": [
        0.7694554328918457,
        0.9689342975616455
      ],
      "type": "VEC2"
    },
    {
      "bufferView": 0,
      "byteOffset": 15960,
      "componentType": 5125,
      "count": 570,
      "type": "SCALAR"
    },
    {
      "bufferView": 2,
      "byteOffset": 18240,
      "componentType": 5126,
      "count": 95,
      "max": [
        0.8472578525543213,
        1.3537013530731201,
        0.942838728427887
      ],
      "min": [
        -0.8472578525543213,
        -0.8472578525543213,
        0.4822103679180145
      ],
      "type": "VEC3"
    },
    {
      "bufferView": 2,
      "byteOffset": 19380,
      "componentType": 5126,
      "count": 95,
      "max": [
        1.0,
        0.9292596578598022,
        0.9968743920326233
      ],
      "min": [
        -1.0,
        -1.0,
        -0.996874213218689
      ],
      "type": "VEC3"
    },
    {
      "bufferView": 1,
      "byteOffset": 6080,
      "componentType": 5126,
      "count": 95,
      "max": [
        0.7694554328918457,
        0.9689342975616455
      ],
      "min": [
        0.7694554328918457,
        0.9689342975616455
      ],
      "type": "VEC2"
    },
    {
      "bufferView": 0,
      "byteOffset": 18240,
      "componentType": 5125,
      "count": 570,
      "type": "SCALAR"
    },
    {
      "bufferView": 2,
      "byteOffset": 20520,
      "componentType": 5126,
      "count": 95,
      "max": [
        0.8472578525543213,
        1.3537013530731201,
        0.942838728427887
      ],
      "min": [
        -0.8472578525543213,
        -0.8472578525543213,
        0.4822103679180145
      ],
      "type": "VEC3"
    },
    {
      "bufferView": 2,
      "byteOffset": 21660,
      "componentType": 5126,
      "count": 95,
      "max": [
        1.0,
        0.9292596578598022,
        0.9968743920326233
      ],
      "min": [
        -1.0,
        -1.0,
        -0.996874213218689
      ],
      "type": "VEC3"
    },
    {
      "bufferView": 1,
      "byteOffset": 6840,
      "componentType": 5126,
      "count": 95,
      "max": [
        0.7694554328918457,
        0.9689342975616455
      ],
      "min": [
        0.7694554328918457,
        0.9689342975616455
      ],
      "type": "VEC2"
    },
    {
      "bufferView": 0,
      "byteOffset": 20520,
      "componentType": 5125,
      "count": 570,
      "type": "SCALAR"
    },
    {
      "bufferView": 2,
      "byteOffset": 22800,
      "componentType": 5126,
      "count": 95,
      "max": [
        0.8472578525543213,
        1.3537013530731201,
        0.942838728427887
      ],
      "min": [
        -0.8472578525543213,
        -0.8472578525543213,
        0.4822103679180145
      ],
      "type": "VEC3"
    },
    {
      "bufferView": 2,
      "byteOffset": 23940,
      "componentType": 5126,
      "count": 95,
      "max": [
        1.0,
        0.9292596578598022,
        0.9968743920326233
      ],
      "min": [
        -1.0,
        -1.0,
        -0.996874213218689
      ],
      "type": "VEC3"
    },
    {
      "bufferView": 1,
      "byteOffset": 7600,
      "componentType": 5126,
      "count": 95,
      "max": [
        0.7694554328918457,
        0.9689342975616455
      ],
      "min": [
        0.7694554328918457,
        0.9689342975616455
      ],
      "type": "VEC2"
    },
    {
      "bufferView": 0,
      "byteOffset": 22800,
      "componentType": 5125,
      "count": 570,
      "type": "SCALAR"
    },
    {
      "bufferView": 2,
      "byteOffset": 25080,
      "componentType": 5126,
      "count": 95,
      "max": [
        0.8472578525543213,
        1.3537013530731201,
        0.942838728427887
      ],
      "min": [
        -0.8472578525543213,
        -0.8472578525543213,
        0.4822103679180145
      ],
      "type": "VEC3"
    },
    {
      "bufferView": 2,
      "byteOffset": 26220,
      "componentType": 5126,
      "count": 95,
      "max": [
        1.0,
        0.9292596578598022,
        0.9968743920326233
      ],
      "min": [
        -1.0,
        -1.0,
        -0.996874213218689
      ],
      "type": "VEC3"
    },
    {
      "bufferView": 1,
      "byteOffset": 8360,
      "componentType": 5126,
      "count": 95,
      "max": [
        0.7694554328918457,
        0.9689342975616455
      ],
      "min": [
        0.7694554328918457,
        0.9689342975616455
      ],
      "type": "VEC2"
    },
    {
      "bufferView": 0,
      "byteOffset": 25080,
      "componentType": 5125,
      "count": 570,
      "type": "SCALAR"
    },
    {
      "bufferView": 2,
      "byteOffset": 27360,
      "componentType": 5126,
      "count": 95,
      "max": [
        0.8472578525543213,
        1.3537013530731201,
        0.942838728427887
      ],
      "min": [
        -0.8472578525543213,
        -0.8472578525543213,
        0.4822103679180145
      ],
      "type": "VEC3"
    },
    {
      "bufferView": 2,
      "byteOffset": 28500,
      "componentType": 5126,
      "count": 95,
      "max": [
        1.0,
        0.9292596578598022,
        0.9968743920326233
      ],
      "min": [
        -1.0,
        -1.0,
        -0.996874213218689
      ],
      "type": "VEC3"
    },
    {
      "bufferView": 1,
      "byteOffset": 9120,
      "componentType": 5126,
      "count": 95,
      "max": [
        0.7694554328918457,
        0.9689342975616455
      ],
      "min": [
        0.7694554328918457,
        0.9689342975616455
      ],
      "type": "VEC2"
    },
    {
      "bufferView": 0,
      "byteOffset": 27360,
      "componentType": 5125,
      "count": 570,
      "type": "SCALAR"
    },
    {
      "bufferView": 2,
      "byteOffset": 29640,
      "componentType": 5126,
      "count": 95,
      "max": [
        0.8472578525543213,
        1.3537013530731201,
        0.942838728427887
      ],
      "min": [
        -0.8472578525543213,
        -0.8472578525543213,
        0.4822103679180145
      ],
      "type": "VEC3"
    },
    {
      "bufferView": 2,
      "byteOffset": 30780,
      "componentType": 5126,
      "count": 95,
      "max": [
        1.0,
        0.9292596578598022,
        0.9968743920326233
      ],
      "min": [
        -1.0,
        -1.0,
        -0.996874213218689
      ],
      "type": "VEC3"
    },
    {
      "bufferView": 1,
      "byteOffset": 9880,
      "componentType": 5126,
      "count": 95,
      "max": [
        0.7694554328918457,
        0.9689342975616455
      ],
      "min": [
        0.7694554328918457,
        0.9689342975616455
      ],
      "type": "VEC2"
    },
    {
      "bufferView": 0,
      "byteOffset": 29640,
      "componentType": 5125,
      "count": 570,
      "type": "SCALAR"
    },
    {
      "bufferView": 2,
      "byteOffset": 31920,
      "componentType": 5126,
      "count": 95,
      "max": [
        0.8472578525543213,
        1.3537013530731201,
        0.942838728427887
      ],
      "min": [
        -0.8472578525543213,
        -0.8472578525543213,
        0.4822103679180145
      ],
      "type": "VEC3"
    },
    {
      "bufferView": 2,
      "byteOffset": 33060,
      "componentType": 5126,
      "count": 95,
      "max": [
        1.0,
        0.9292596578598022,
        0.9968743920326233
      ],
      "min": [
        -1.0,
        -1.0,
        -0.996874213218689
      ],
      "type": "VEC3"
    },
    {
      "bufferView": 1,
      "byteOffset": 10640,
      "componentType": 5126,
      "count": 95,
      "max": [
        0.7694554328918457,
        0.9689342975616455
      ],
      "min": [
        0.7694554328918457,
        0.9689342975616455
      ],
      "type": "VEC2"
    },
    {
      "bufferView": 0,
      "byteOffset": 31920,
      "componentType": 5125,
      "count": 570,
      "type": "SCALAR"
    },
    {
      "bufferView": 2,
      "byteOffset": 34200,
      "componentType": 5126,
      "count": 95,
      "max": [
        0.8472578525543213,
        1.3537013530731201,
        0.942838728427887
      ],
      "min": [
        -0.8472578525543213,
        -0.8472578525543213,
        0.4822103679180145
      ],
      "type": "VEC3"
    },
    {
      "bufferView": 2,
      "byteOffset": 35340,
      "componentType": 5126,
      "count": 95,
      "max": [
        1.0,
        0.9292596578598022,
        0.9968743920326233
      ],
      "min": [
        -1.0,
        -1.0,
        -0.996874213218689
      ],
      "type": "VEC3"
    },
    {
      "bufferView": 1,
      "byteOffset": 11400,
      "componentType": 5126,
      "count": 95,
      "max": [
        0.7694554328918457,
        0.9689342975616455
      ],
      "min": [
        0.7694554328918457,
        0.9689342975616455
      ],
      "type": "VEC2"
    },
    {
      "bufferView": 0,
      "byteOffset": 34200,
      "componentType": 5125,
      "count": 570,
      "type": "SCALAR"
    },
    {
      "bufferView": 2,
      "byteOffset": 36480,
      "componentType": 5126,
      "count": 1296,
      "max": [
        0.150241419672966,
        0.8732292056083679,
        22.867883682250977
      ],
      "min": [
        -0.150241419672966,
        -5.675748348236084,
        -3.7945804595947266
      ],
      "type": "VEC3"
    },
    {
      "bufferView": 2,
      "byteOffset": 52032,
      "componentType": 5126,
      "count": 1296,
      "max": [
        0.965925931930542,
        0.9657672047615051,
        0.9615563154220581
      ],
      "min": [
        -0.965925931930542,
        -0.9657670259475708,
        -0.9627971053123474
      ],
      "type": "VEC3"
    },
    {
      "bufferView": 1,
      "byteOffset": 12160,
      "componentType": 5126,
      "count": 1296,
      "max": [
        0.6516405344009399,
        0.266695499420166
      ],
      "min": [
        0.6516405344009399,
        0.266695499420166
      ],
      "type": "VEC2"
    },
    {
      "bufferView": 0,
      "byteOffset": 36480,
      "componentType": 5125,
      "count": 1944,
      "type": "SCALAR"
    },
    {
      "bufferView": 2,
      "byteOffset": 67584,
      "componentType": 5126,
      "count": 1296,
      "max": [
        0.150241419672966,
        0.8732292056083679,
        22.867883682250977
      ],
      "min": [
        -0.150241419672966,
        -5.675748348236084,
        -3.7945804595947266
      ],
      "type": "VEC3"
    },
    {
      "bufferView": 2,
      "byteOffset": 83136,
      "componentType": 5126,
      "count": 1296,
      "max": [
        0.965925931930542,
        0.9657672047615051,
        0.9615563154220581
      ],
      "min": [
        -0.965925931930542,
        -0.9657670259475708,
        -0.9627971053123474
      ],
      "type": "VEC3"
    },
    {
      "bufferView": 1,
      "byteOffset": 22528,
      "componentType": 5126,
      "count": 1296,
      "max": [
        0.6516405344009399,
        0.266695499420166
      ],
      "min": [
        0.6516405344009399,
        0.266695499420166
      ],
      "type": "VEC2"
    },
    {
      "bufferView": 0,
      "byteOffset": 44256,
      "componentType": 5125,
      "count": 1944,
      "type": "SCALAR"
    },
    {
      "bufferView": 2,
      "byteOffset": 98688,
      "componentType": 5126,
      "count": 1296,
      "max": [
        0.150241419672966,
        0.8732292056083679,
        22.867883682250977
      ],
      "min": [
        -0.150241419672966,
        -5.675748348236084,
        -3.7945804595947266
      ],
      "type": "VEC3"
    },
    {
      "bufferView": 2,
      "byteOffset": 114240,
      "componentType": 5126,
      "count": 1296,
      "max": [
        0.965925931930542,
        0.9657672047615051,
        0.9615563154220581
      ],
      "min": [
        -0.965925931930542,
        -0.9657670259475708,
        -0.9627971053123474
      ],
      "type": "VEC3"
    },
    {
      "bufferView": 1,
      "byteOffset": 32896,
      "componentType": 5126,
      "count": 1296,
      "max": [
        0.6516405344009399,
        0.266695499420166
      ],
      "min": [
        0.6516405344009399,
        0.266695499420166
      ],
      "type": "VEC2"
    },
    {
      "bufferView": 0,
      "byteOffset": 52032,
      "componentType": 5125,
      "count": 1944,
      "type": "SCALAR"
    },
    {
      "bufferView": 2,
      "byteOffset": 129792,
      "componentType": 5126,
      "count": 1296,
      "max": [
        0.150241419672966,
        0.8732292056083679,
        22.867883682250977
      ],
      "min": [
        -0.150241419672966,
        -5.675748348236084,
        -3.7945804595947266
      ],
      "type": "VEC3"
    },
    {
      "bufferView": 2,
      "byteOffset": 145344,
      "componentType": 5126,
      "count": 1296,
      "max": [
        0.965925931930542,
        0.9657672047615051,
        0.9615563154220581
      ],
      "min": [
        -0.965925931930542,
        -0.9657670259475708,
        -0.9627971053123474
      ],
      "type": "VEC3"
    },
    {
      "bufferView": 1,
      "byteOffset": 43264,
      "componentType": 5126,
      "count": 1296,
      "max": [
        0.6516405344009399,
        0.266695499420166
      ],
      "min": [
        0.6516405344009399,
        0.266695499420166
      ],
      "type": "VEC2"
    },
    {
      "bufferView": 0,
      "byteOffset": 59808,
      "componentType": 5125,
      "count": 1944,
      "type": "SCALAR"
    },
    {
      "bufferView": 2,
      "byteOffset": 160896,
      "componentType": 5126,
      "count": 120,
      "max": [
        0.38997167348861694,
        0.38997167348861694,
        0.9629696607589722
      ],
      "min": [
        -0.38997167348861694,
        -0.38997167348861694,
        -0.9629696607589722
      ],
      "type": "VEC3"
    },
    {
      "bufferView": 2,
      "byteOffset": 162336,
      "componentType": 5126,
      "count": 120,
      "max": [
        0.9994770884513855,
        0.999477207660675,
        1.0
      ],
      "min": [
        -0.999477207660675,
        -0.999477207660675,
        -1.0
      ],
      "type": "VEC3"
    },
    {
      "bufferView": 1,
      "byteOffset": 53632,
      "componentType": 5126,
      "count": 120,
      "max": [
        0.834563672542572,
        0.7116017937660217
      ],
      "min": [
        0.834563672542572,
        0.7116017937660217
      ],
      "type": "VEC2"
    },
    {
      "bufferView": 0,
      "byteOffset": 67584,
      "componentType": 5125,
      "count": 492,
      "type": "SCALAR"
    },
    {
      "bufferView": 2,
      "byteOffset": 163776,
      "componentType": 5126,
      "count": 120,
      "max": [
        0.38997167348861694,
        0.38997167348861694,
        0.9629696607589722
      ],
      "min": [
        -0.38997167348861694,
        -0.38997167348861694,
        -0.9629696607589722
      ],
      "type": "VEC3"
    },
    {
      "bufferView": 2,
      "byteOffset": 165216,
      "componentType": 5126,
      "count": 120,
      "max": [
        0.9994770884513855,
        0.999477207660675,
        1.0
      ],
      "min": [
        -0.999477207660675,
        -0.999477207660675,
        -1.0
      ],
      "type": "VEC3"
    },
    {
      "bufferView": 1,
      "byteOffset": 54592,
      "componentType": 5126,
      "count": 120,
      "max": [
        0.4129103124141693,
        0.644943356513977
      ],
      "min": [
        0.4129103124141693,
        0.644943356513977
      ],
      "type": "VEC2"
    },
    {
      "bufferView": 0,
      "byteOffset": 69552,
      "componentType": 5125,
      "count": 492,
      "type": "SCALAR"
    },
    {
      "bufferView": 2,
      "byteOffset": 166656,
      "componentType": 5126,
      "count": 120,
      "max": [
        0.38997167348861694,
        0.38997167348861694,
        0.9629696607589722
      ],
      "min": [
        -0.38997167348861694,
        -0.38997167348861694,
        -0.9629696607589722
      ],
      "type": "VEC3"
    },
    {
      "bufferView": 2,
      "byteOffset": 168096,
      "componentType": 5126,
      "count": 120,
      "max": [
        0.9994770884513855,
        0.999477207660675,
        1.0
      ],
      "min": [
        -0.999477207660675,
        -0.999477207660675,
        -1.0
      ],
      "type": "VEC3"
    },
    {
      "bufferView": 1,
      "byteOffset": 55552,
      "componentType": 5126,
      "count": 120,
      "max": [
        0.3315250277519226,
        0.5922366380691528
      ],
      "min": [
        0.3315250277519226,
        0.5922366380691528
      ],
      "type": "VEC2"
    },
    {
      "bufferView": 0,
      "byteOffset": 71520,
      "componentType": 5125,
      "count": 492,
      "type": "SCALAR"
    },
    {
      "bufferView": 2,
      "byteOffset": 169536,
      "componentType": 5126,
      "count": 120,
      "max": [
        0.38997167348861694,
        0.38997167348861694,
        0.9629696607589722
      ],
      "min": [
        -0.38997167348861694,
        -0.38997167348861694,
        -0.9629696607589722
      ],
      "type": "VEC3"
    },
    {
      "bufferView": 2,
      "byteOffset": 170976,
      "componentType": 5126,
      "count": 120,
      "max": [
        0.9994770884513855,
        0.999477207660675,
        1.0
      ],
      "min": [
        -0.999477207660675,
        -0.999477207660675,
        -1.0
      ],
      "type": "VEC3"
    },
    {
      "bufferView": 1,
      "byteOffset": 56512,
      "componentType": 5126,
      "count": 120,
      "max": [
        0.0958951860666275,
        0.5193774700164795
      ],
      "min": [
        0.0958951860666275,
        0.5193774700164795
      ],
      "type": "VEC2"
    },
    {
      "bufferView": 0,
      "byteOffset": 73488,
      "componentType": 5125,
      "count": 492,
      "type": "SCALAR"
    },
    {
      "bufferView": 2,
      "byteOffset": 172416,
      "componentType": 5126,
      "count": 276,
      "max": [
        0.44599372148513794,
        1.5946542024612427,
        1.5946590900421143
      ],
      "min": [
        -1.1298964023590088,
        -1.59465491771698,
        -1.5946500301361084
      ],
      "type": "VEC3"
    },
    {
      "bufferView": 2,
      "byteOffset": 175728,
      "componentType": 5126,
      "count": 276,
      "max": [
        1.0,
        1.0,
        1.0
      ],
      "min": [
        -1.0,
        -1.0,
        -1.0
      ],
      "type": "VEC3"
    },
    {
      "bufferView": 1,
      "byteOffset": 57472,
      "componentType": 5126,
      "count": 276,
      "max": [
        0.9911335110664368,
        0.11322607100009918
      ],
      "min": [
        0.9911335110664368,
        0.11322607100009918
      ],
      "type": "VEC2"
    },
    {
      "bufferView": 0,
      "byteOffset": 75456,
      "componentType": 5125,
      "count": 1644,
      "type": "SCALAR"
    },
    {
      "bufferView": 2,
      "byteOffset": 179040,
      "componentType": 5126,
      "count": 168,
      "max": [
        1.1275839805603027,
        1.1275838613510132,
        1.443357229232788
      ],
      "min": [
        -1.1275838613510132,
        -1.1275838613510132,
        -0.37080398201942444
      ],
      "type": "VEC3"
    },
    {
      "bufferView": 2,
      "byteOffset": 181056,
      "componentType": 5126,
      "count": 168,
      "max": [
        0.9808167815208435,
        0.9808166027069092,
        0.9756907820701599
      ],
      "min": [
        -0.9808168411254883,
        -0.9808166027069092,
        -0.9756903648376465
      ],
      "type": "VEC3"
    },
    {
      "bufferView": 1,
      "byteOffset": 59680,
      "componentType": 5126,
      "count": 168,
      "max": [
        0.834563672542572,
        0.7116017937660217
      ],
      "min": [
        0.834563672542572,
        0.7116017937660217
      ],
      "type": "VEC2"
    },
    {
      "bufferView": 0,
      "byteOffset": 82032,
      "componentType": 5125,
      "count": 984,
      "type": "SCALAR"
    },
    {
      "bufferView": 2,
      "byteOffset": 183072,
      "componentType": 5126,
      "count": 276,
      "max": [
        0.44599372148513794,
        1.5946542024612427,
        1.5946590900421143
      ],
      "min": [
        -1.1299002170562744,
        -1.59465491771698,
        -1.5946500301361084
      ],
      "type": "VEC3"
    },
    {
      "bufferView": 2,
      "byteOffset": 186384,
      "componentType": 5126,
      "count": 276,
      "max": [
        1.0,
        1.0,
        1.0
      ],
      "min": [
        -1.0,
        -1.0,
        -1.0
      ],
      "type": "VEC3"
    },
    {
      "bufferView": 1,
      "byteOffset": 61024,
      "componentType": 5126,
      "count": 276,
      "max": [
        0.9911335110664368,
        0.11322607100009918
      ],
      "min": [
        0.9911335110664368,
        0.11322607100009918
      ],
      "type": "VEC2"
    },
    {
      "bufferView": 0,
      "byteOffset": 85968,
      "componentType": 5125,
      "count": 1644,
      "type": "SCALAR"
    },
    {
      "bufferView": 2,
      "byteOffset": 189696,
      "componentType": 5126,
      "count": 168,
      "max": [
        1.1275839805603027,
        1.1275838613510132,
        1.443357229232788
      ],
      "min": [
        -1.1275838613510132,
        -1.1275838613510132,
        -0.37080398201942444
      ],
      "type": "VEC3"
    },
    {
      "bufferView": 2,
      "byteOffset": 191712,
      "componentType": 5126,
      "count": 168,
      "max": [
        0.9808167815208435,
        0.9808166027069092,
        0.9756907820701599
      ],
      "min": [
        -0.9808168411254883,
        -0.9808166027069092,
        -0.9756903648376465
      ],
      "type": "VEC3"
    },
    {
      "bufferView": 1,
      "byteOffset": 63232,
      "componentType": 5126,
      "count": 168,
      "max": [
        0.9058727025985718,
        0.644943356513977
      ],
      "min": [
        0.9058727025985718,
        0.644943356513977
      ],
      "type": "VEC2"
    },
    {
      "bufferView": 0,
      "byteOffset": 92544,
      "componentType": 5125,
      "count": 984,
      "type": "SCALAR"
    },
    {
      "bufferView": 2,
      "byteOffset": 193728,
      "componentType": 5126,
      "count": 276,
      "max": [
        0.44599372148513794,
        1.5946542024612427,
        1.5946590900421143
      ],
      "min": [
        -1.1299002170562744,
        -1.59465491771698,
        -1.5946500301361084
      ],
      "type": "VEC3"
    },
    {
      "bufferView": 2,
      "byteOffset": 197040,
      "componentType": 5126,
      "count": 276,
      "max": [
        1.0,
        1.0,
        1.0
      ],
      "min": [
        -1.0,
        -1.0,
        -1.0
      ],
      "type": "VEC3"
    },
    {
      "bufferView": 1,
      "byteOffset": 64576,
      "componentType": 5126,
      "count": 276,
      "max": [
        0.9911335110664368,
        0.11322607100009918
      ],
      "min": [
        0.9911335110664368,
        0.11322607100009918
      ],
      "type": "VEC2"
    },
    {
      "bufferView": 0,
      "byteOffset": 96480,
      "componentType": 5125,
      "count": 1644,
      "type": "SCALAR"
    },
    {
      "bufferView": 2,
      "byteOffset": 200352,
      "componentType": 5126,
      "count": 168,
      "max": [
        1.1275839805603027,
        1.1275838613510132,
        1.443357229232788
      ],
      "min": [
        -1.1275838613510132,
        -1.1275838613510132,
        -0.37080398201942444
      ],
      "type": "VEC3"
    },
    {
      "bufferView": 2,
      "byteOffset": 202368,
      "componentType": 5126,
      "count": 168,
      "max": [
        0.9808167815208435,
        0.9808166027069092,
        0.9756907820701599
      ],
      "min": [
        -0.9808168411254883,
        -0.9808166027069092,
        -0.9756903648376465
      ],
      "type": "VEC3"
    },
    {
      "bufferView": 1,
      "byteOffset": 66784,
      "componentType": 5126,
      "count": 168,
      "max": [
        0.27571794390678406,
        0.05896922945976257
      ],
      "min": [
        0.27571794390678406,
        0.05896922945976257
      ],
      "type": "VEC2"
    },
    {
      "bufferView": 0,
      "byteOffset": 103056,
      "componentType": 5125,
      "count": 984,
      "type": "SCALAR"
    },
    {
      "bufferView": 2,
      "byteOffset": 204384,
      "componentType": 5126,
      "count": 276,
      "max": [
        0.44599372148513794,
        1.5946542024612427,
        1.5946590900421143
      ],
      "min": [
        -1.1299078464508057,
        -1.59465491771698,
        -1.5946500301361084
      ],
      "type": "VEC3"
    },
    {
      "bufferView": 2,
      "byteOffset": 207696,
      "componentType": 5126,
      "count": 276,
      "max": [
        1.0,
        1.0,
        1.0
      ],
      "min": [
        -1.0,
        -1.0,
        -1.0
      ],
      "type": "VEC3"
    },
    {
      "bufferView": 1,
      "byteOffset": 68128,
      "componentType": 5126,
      "count": 276,
      "max": [
        0.9911335110664368,
        0.11322607100009918
      ],
      "min": [
        0.9911335110664368,
        0.11322607100009918
      ],
      "type": "VEC2"
    },
    {
      "bufferView": 0,
      "byteOffset": 106992,
      "componentType": 5125,
      "count": 1644,
      "type": "SCALAR"
    },
    {
      "bufferView": 2,
      "byteOffset": 211008,
      "componentType": 5126,
      "count": 168,
      "max": [
        1.1275839805603027,
        1.1275838613510132,
        1.443357229232788
      ],
      "min": [
        -1.1275838613510132,
        -1.1275838613510132,
        -0.37080398201942444
      ],
      "type": "VEC3"
    },
    {
      "bufferView": 2,
      "byteOffset": 213024,
      "componentType": 5126,
      "count": 168,
      "max": [
        0.9808167815208435,
        0.9808166027069092,
        0.9756907820701599
      ],
      "min": [
        -0.9808168411254883,
        -0.9808166027069092,
        -0.9756903648376465
      ],
      "type": "VEC3"
    },
    {
      "bufferView": 1,
      "byteOffset": 70336,
      "componentType": 5126,
      "count": 168,
      "max": [
        0.21371009945869446,
        0.5271284580230713
      ],
      "min": [
        0.21371009945869446,
        0.5271284580230713
      ],
      "type": "VEC2"
    },
    {
      "bufferView": 0,
      "byteOffset": 113568,
      "componentType": 5125,
      "count": 984,
      "type": "SCALAR"
    },
    {
      "bufferView": 2,
      "byteOffset": 215040,
      "componentType": 5126,
      "count": 252,
      "max": [
        0.8015795946121216,
        0.8689954876899719,
        14.626127243041992
      ],
      "min": [
        -0.8015795946121216,
        -3.5561790466308594,
        -19.365192413330078
      ],
      "type": "VEC3"
    },
    {
      "bufferView": 2,
      "byteOffset": 218064,
      "componentType": 5126,
      "count": 252,
      "max": [
        0.9999532699584961,
        0.9853307008743286,
        0.8022422790527344
      ],
      "min": [
        -0.9999494552612305,
        -0.9855132102966309,
        -1.0
      ],
      "type": "VEC3"
    },
    {
      "bufferView": 1,
      "byteOffset": 71680,
      "componentType": 5126,
      "count": 252,
      "max": [
        0.16642914712429047,
        0.11322607100009918
      ],
      "min": [
        0.16642914712429047,
        0.11322607100009918
      ],
      "type": "VEC2"
    },
    {
      "bufferView": 0,
      "byteOffset": 117504,
      "componentType": 5125,
      "count": 1284,
      "type": "SCALAR"
    },
    {
      "bufferView": 2,
      "byteOffset": 221088,
      "componentType": 5126,
      "count": 252,
      "max": [
        0.8015795946121216,
        0.8689954876899719,
        14.626127243041992
      ],
      "min": [
        -0.8015795946121216,
        -3.5561790466308594,
        -19.365192413330078
      ],
      "type": "VEC3"
    },
    {
      "bufferView": 2,
      "byteOffset": 224112,
      "componentType": 5126,
      "count": 252,
      "max": [
        0.9999532699584961,
        0.9853307008743286,
        0.8022422790527344
      ],
      "min": [
        -0.9999494552612305,
        -0.9855132102966309,
        -1.0
      ],
      "type": "VEC3"
    },
    {
      "bufferView": 1,
      "byteOffset": 73696,
      "componentType": 5126,
      "count": 252,
      "max": [
        0.23153738677501678,
        0.1550813615322113
      ],
      "min": [
        0.23153738677501678,
        0.1550813615322113
      ],
      "type": "VEC2"
    },
    {
      "bufferView": 0,
      "byteOffset": 122640,
      "componentType": 5125,
      "count": 1284,
      "type": "SCALAR"
    },
    {
      "bufferView": 2,
      "byteOffset": 227136,
      "componentType": 5126,
      "count": 252,
      "max": [
        0.8015795946121216,
        0.8689954876899719,
        14.626127243041992
      ],
      "min": [
        -0.8015795946121216,
        -3.5561790466308594,
        -19.365192413330078
      ],
      "type": "VEC3"
    },
    {
      "bufferView": 2,
      "byteOffset": 230160,
      "componentType": 5126,
      "count": 252,
      "max": [
        0.9999532699584961,
        0.9853307008743286,
        0.8022422790527344
      ],
      "min": [
        -0.9999494552612305,
        -0.9855132102966309,
        -1.0
      ],
      "type": "VEC3"
    },
    {
      "bufferView": 1,
      "byteOffset": 75712,
      "componentType": 5126,
      "count": 252,
      "max": [
        0.27571794390678406,
        0.05896922945976257
      ],
      "min": [
        0.27571794390678406,
        0.05896922945976257
      ],
      "type": "VEC2"
    },
    {
      "bufferView": 0,
      "byteOffset": 127776,
      "componentType": 5125,
      "count": 1284,
      "type": "SCALAR"
    },
    {
      "bufferView": 2,
      "byteOffset": 233184,
      "componentType": 5126,
      "count": 252,
      "max": [
        0.8015795946121216,
        0.8689954876899719,
        14.626127243041992
      ],
      "min": [
        -0.8015795946121216,
        -3.5561790466308594,
        -19.365192413330078
      ],
      "type": "VEC3"
    },
    {
      "bufferView": 2,
      "byteOffset": 236208,
      "componentType": 5126,
      "count": 252,
      "max": [
        0.9999532699584961,
        0.9853307008743286,
        0.8022422790527344
      ],
      "min": [
        -0.9999494552612305,
        -0.9855132102966309,
        -1.0
      ],
      "type": "VEC3"
    },
    {
      "bufferView": 1,
      "byteOffset": 77728,
      "componentType": 5126,
      "count": 252,
      "max": [
        0.21371009945869446,
        0.5271284580230713
      ],
      "min": [
        0.21371009945869446,
        0.5271284580230713
      ],
      "type": "VEC2"
    },
    {
      "bufferView": 0,
      "byteOffset": 132912,
      "componentType": 5125,
      "count": 1284,
      "type": "SCALAR"
    },
    {
      "bufferView": 2,
      "byteOffset": 239232,
      "componentType": 5126,
      "count": 756,
      "max": [
        0.9618325233459473,
        1.0550503730773926,
        13.285639762878418
      ],
      "min": [
        -0.9618324637413025,
        -2.864445686340332,
        -18.68777084350586
      ],
      "type": "VEC3"
    },
    {
      "bufferView": 2,
      "byteOffset": 248304,
      "componentType": 5126,
      "count": 756,
      "max": [
        0.9999990463256836,
        0.9851850867271423,
        1.0
      ],
      "min": [
        -0.9999989867210388,
        -0.985213041305542,
        -1.0
      ],
      "type": "VEC3"
    },
    {
      "bufferView": 1,
      "byteOffset": 79744,
      "componentType": 5126,
      "count": 756,
      "max": [
        0.9771817326545715,
        0.09927430748939514
      ],
      "min": [
        0.9771817326545715,
        0.09927430748939514
      ],
      "type": "VEC2"
    },
    {
      "bufferView": 0,
      "byteOffset": 138048,
      "componentType": 5125,
      "count": 2352,
      "type": "SCALAR"
    },
    {
      "bufferView": 2,
      "byteOffset": 257376,
      "componentType": 5126,
      "count": 756,
      "max": [
        0.9618325233459473,
        1.0550503730773926,
        13.285639762878418
      ],
      "min": [
        -0.9618324637413025,
        -2.864445686340332,
        -18.68777084350586
      ],
      "type": "VEC3"
    },
    {
      "bufferView": 2,
      "byteOffset": 266448,
      "componentType": 5126,
      "count": 756,
      "max": [
        0.9999990463256836,
        0.9851850867271423,
        1.0
      ],
      "min": [
        -0.9999989867210388,
        -0.985213041305542,
        -1.0
      ],
      "type": "VEC3"
    },
    {
      "bufferView": 1,
      "byteOffset": 85792,
      "componentType": 5126,
      "count": 756,
      "max": [
        0.9771817326545715,
        0.09927430748939514
      ],
      "min": [
        0.9771817326545715,
        0.09927430748939514
      ],
      "type": "VEC2"
    },
    {
      "bufferView": 0,
      "byteOffset": 147456,
      "componentType": 5125,
      "count": 2352,
      "type": "SCALAR"
    },
    {
      "bufferView": 2,
      "byteOffset": 275520,
      "componentType": 5126,
      "count": 756,
      "max": [
        0.9618325233459473,
        1.0550503730773926,
        13.285639762878418
      ],
      "min": [
        -0.9618324637413025,
        -2.864445686340332,
        -18.68777084350586
      ],
      "type": "VEC3"
    },
    {
      "bufferView": 2,
      "byteOffset": 284592,
      "componentType": 5126,
      "count": 756,
      "max": [
        0.9999990463256836,
        0.9851850867271423,
        1.0
      ],
      "min": [
        -0.9999989867210388,
        -0.985213041305542,
        -1.0
      ],
      "type": "VEC3"
    },
    {
      "bufferView": 1,
      "byteOffset": 91840,
      "componentType": 5126,
      "count": 756,
      "max": [
        0.9771817326545715,
        0.09927430748939514
      ],
      "min": [
        0.9771817326545715,
        0.09927430748939514
      ],
      "type": "VEC2"
    },
    {
      "bufferView": 0,
      "byteOffset": 156864,
      "componentType": 5125,
      "count": 2352,
      "type": "SCALAR"
    },
    {
      "bufferView": 2,
      "byteOffset": 293664,
      "componentType": 5126,
      "count": 756,
      "max": [
        0.9618325233459473,
        1.0550503730773926,
        13.285639762878418
      ],
      "min": [
        -0.9618324637413025,
        -2.864445686340332,
        -18.68777084350586
      ],
      "type": "VEC3"
    },
    {
      "bufferView": 2,
      "byteOffset": 302736,
      "componentType": 5126,
      "count": 756,
      "max": [
        0.9999990463256836,
        0.9851850867271423,
        1.0
      ],
      "min": [
        -0.9999989867210388,
        -0.985213041305542,
        -1.0
      ],
      "type": "VEC3"
    },
    {
      "bufferView": 1,
      "byteOffset": 97888,
      "componentType": 5126,
      "count": 756,
      "max": [
        0.9771817326545715,
        0.09927430748939514
      ],
      "min": [
        0.9771817326545715,
        0.09927430748939514
      ],
      "type": "VEC2"
    },
    {
      "bufferView": 0,
      "byteOffset": 166272,
      "componentType": 5125,
      "count": 2352,
      "type": "SCALAR"
    }
  ],
  "asset": {
    "extras": {
      "author": "SymetrikGames (https://sketchfab.com/symetrik_games)",
      "license": "CC-BY-4.0 (http://creativecommons.org/licenses/by/4.0/)",
      "source": "https://sketchfab.com/3d-models/fishing-rods-9ff2c7144654452e97531dbe1154ebb2",
      "title": "Fishing Rods"
    },
    "generator": "Sketchfab-16.99.0",
    "version": "2.0"
  },
  "bufferViews": [
    {
      "buffer": 0,
      "byteLength": 175680,
      "name": "floatBufferViews",
      "target": 34963
    },
    {
      "buffer": 0,
      "byteLength": 103936,
      "byteOffset": 175680,
      "byteStride": 8,
      "name": "floatBufferViews",
      "target": 34962
    },
    {
      "buffer": 0,
      "byteLength": 311808,
      "byteOffset": 279616,
      "byteStride": 12,
      "name": "floatBufferViews",
      "target": 34962
    }
  ],
  "buffers": [
    {
      "byteLength": 591424,
      "uri": "scene.bin"
    }
  ],
  "images": [
    {
      "uri": "textures/Texture_baseColor.png"
    }
  ],
  "materials": [
    {
      "doubleSided": true,
      "name": "Texture",
      "pbrMetallicRoughness": {
        "baseColorTexture": {
          "index": 0
        },
        "metallicFactor": 0.0,
        "roughnessFactor": 0.8211145618000169
      }
    }
  ],
  "meshes": [
    {
      "name": "Guides.001_Texture_0",
      "primitives": [
        {
          "attributes": {
            "NORMAL": 1,
            "POSITION": 0,
            "TEXCOORD_0": 2
          },
          "indices": 3,
          "material": 0,
          "mode": 4
        }
      ]
    },
    {
      "name": "Guides.002_Texture_0",
      "primitives": [
        {
          "attributes": {
            "NORMAL": 5,
            "POSITION": 4,
            "TEXCOORD_0": 6
          },
          "indices": 7,
          "material": 0,
          "mode": 4
        }
      ]
    },
    {
      "name": "Guides.003_Texture_0",
      "primitives": [
        {
          "attributes": {
            "NORMAL": 9,
            "POSITION": 8,
            "TEXCOORD_0": 10
          },
          "indices": 11,
          "material": 0,
          "mode": 4
        }
      ]
    },
    {
      "name": "Guides.008_Texture_0",
      "primitives": [
        {
          "attributes": {
            "NORMAL": 13,
            "POSITION": 12,
            "TEXCOORD_0": 14
          },
          "indices": 15,
          "material": 0,
          "mode": 4
        }
      ]
    },
    {
      "name": "Guides.009_Texture_0",
      "primitives": [
        {
          "attributes": {
            "NORMAL": 17,
            "POSITION": 16,
            "TEXCOORD_0": 18
          },
          "indices": 19,
          "material": 0,
          "mode": 4
        }
      ]
    },
    {
      "name": "Guides.010_Texture_0",
      "primitives": [
        {
          "attributes": {
            "NORMAL": 21,
            "POSITION": 20,
            "TEXCOORD_0": 22
          },
          "indices": 23,
          "material": 0,
          "mode": 4
        }
      ]
    },
    {
      "name": "Guides.011_Texture_0",
      "primitives": [
        {
          "attributes": {
            "NORMAL": 25,
            "POSITION": 24,
            "TEXCOORD_0": 26
          },
          "indices": 27,
          "material": 0,
          "mode": 4
        }
      ]
    },
    {
      "name": "Guides.012_Texture_0",
      "primitives": [
        {
          "attributes": {
            "NORMAL": 29,
            "POSITION": 28,
            "TEXCOORD_0": 30
          },
          "indices": 31,
          "material": 0,
          "mode": 4
        }
      ]
    },
    {
      "name": "Guides.013_Texture_0",
      "primitives": [
        {
          "attributes": {
            "NORMAL": 33,
            "POSITION": 32,
            "TEXCOORD_0": 34
          },
          "indices": 35,
          "material": 0,
          "mode": 4
        }
      ]
    },
    {
      "name": "Guides.014_Texture_0",
      "primitives": [
        {
          "attributes": {
            "NORMAL": 37,
            "POSITION": 36,
            "TEXCOORD_0": 38
          },
          "indices": 39,
          "material": 0,
          "mode": 4
        }
      ]
    },
    {
      "name": "Guides.015_Texture_0",
      "primitives": [
        {
          "attributes": {
            "NORMAL": 41,
            "POSITION": 40,
            "TEXCOORD_0": 42
          },
          "indices": 43,
          "material": 0,
          "mode": 4
        }
      ]
    },
    {
      "name": "Guides.016_Texture_0",
      "primitives": [
        {
          "attributes": {
            "NORMAL": 45,
            "POSITION": 44,
            "TEXCOORD_0": 46
          },
          "indices": 47,
          "material": 0,
          "mode": 4
        }
      ]
    },
    {
      "name": "Guides.017_Texture_0",
      "primitives": [
        {
          "attributes": {
            "NORMAL": 49,
            "POSITION": 48,
            "TEXCOORD_0": 50
          },
          "indices": 51,
          "material": 0,
          "mode": 4
        }
      ]
    },
    {
      "name": "Guides.018_Texture_0",
      "primitives": [
        {
          "attributes": {
            "NORMAL": 53,
            "POSITION": 52,
            "TEXCOORD_0": 54
          },
          "indices": 55,
          "material": 0,
          "mode": 4
        }
      ]
    },
    {
      "name": "Guides.019_Texture_0",
      "primitives": [
        {
          "attributes": {
            "NORMAL": 57,
            "POSITION": 56,
            "TEXCOORD_0": 58
          },
          "indices": 59,
          "material": 0,
          "mode": 4
        }
      ]
    },
    {
      "name": "Guides.020_Texture_0",
      "primitives": [
        {
          "attributes": {
            "NORMAL": 61,
            "POSITION": 60,
            "TEXCOORD_0": 62
          },
          "indices": 63,
          "material": 0,
          "mode": 4
        }
      ]
    },
    {
      "name": "Line.001_Texture_0",
      "primitives": [
        {
          "attributes": {
            "NORMAL": 65,
            "POSITION": 64,
            "TEXCOORD_0": 66
          },
          "indices": 67,
          "material": 0,
          "mode": 4
        }
      ]
    },
    {
      "name": "Line.002_Texture_0",
      "primitives": [
        {
          "attributes": {
            "NORMAL": 69,
            "POSITION": 68,
            "TEXCOORD_0": 70
          },
          "indices": 71,
          "material": 0,
          "mode": 4
        }
      ]
    },
    {
      "name": "Line.003_Texture_0",
      "primitives": [
        {
          "attributes": {
            "NORMAL": 73,
            "POSITION": 72,
            "TEXCOORD_0": 74
          },
          "indices": 75,
          "material": 0,
          "mode": 4
        }
      ]
    },
    {
      "name": "Line.004_Texture_0",
      "primitives": [
        {
          "attributes": {
            "NORMAL": 77,
            "POSITION": 76,
            "TEXCOORD_0": 78
          },
          "indices": 79,
          "material": 0,
          "mode": 4
        }
      ]
    },
    {
      "name": "RealHandle.001_Texture_0",
      "primitives": [
        {
          "attributes": {
            "NORMAL": 81,
            "POSITION": 80,
            "TEXCOORD_0": 82
          },
          "indices": 83,
          "material": 0,
          "mode": 4
        }
      ]
    },
    {
      "name": "RealHandle.002_Texture_0",
      "primitives": [
        {
          "attributes": {
            "NORMAL": 85,
            "POSITION": 84,
            "TEXCOORD_0": 86
          },
          "indices": 87,
          "material": 0,
          "mode": 4
        }
      ]
    },
    {
      "name": "RealHandle.003_Texture_0",
      "primitives": [
        {
          "attributes": {
            "NORMAL": 89,
            "POSITION": 88,
            "TEXCOORD_0": 90
          },
          "indices": 91,
          "material": 0,
          "mode": 4
        }
      ]
    },
    {
      "name": "RealHandle.004_Texture_0",
      "primitives": [
        {
          "attributes": {
            "NORMAL": 93,
            "POSITION": 92,
            "TEXCOORD_0": 94
          },
          "indices": 95,
          "material": 0,
          "mode": 4
        }
      ]
    },
    {
      "name": "ReelPart.002_Texture_0",
      "primitives": [
        {
          "attributes": {
            "NORMAL": 97,
            "POSITION": 96,
            "TEXCOORD_0": 98
          },
          "indices": 99,
          "material": 0,
          "mode": 4
        }
      ]
    },
    {
      "name": "ReelPart.003_Texture_0",
      "primitives": [
        {
          "attributes": {
            "NORMAL": 101,
            "POSITION": 100,
            "TEXCOORD_0": 102
          },
          "indices": 103,
          "material": 0,
          "mode": 4
        }
      ]
    },
    {
      "name": "ReelPart.004_Texture_0",
      "primitives": [
        {
          "attributes": {
            "NORMAL": 105,
            "POSITION": 104,
            "TEXCOORD_0": 106
          },
          "indices": 107,
          "material": 0,
          "mode": 4
        }
      ]
    },
    {
      "name": "ReelPart.005_Texture_0",
      "primitives": [
        {
          "attributes": {
            "NORMAL": 109,
            "POSITION": 108,
            "TEXCOORD_0": 110
          },
          "indices": 111,
          "material": 0,
          "mode": 4
        }
      ]
    },
    {
      "name": "ReelPart.006_Texture_0",
      "primitives": [
        {
          "attributes": {
            "NORMAL": 113,
            "POSITION": 112,
            "TEXCOORD_0": 114
          },
          "indices": 115,
          "material": 0,
          "mode": 4
        }
      ]
    },
    {
      "name": "ReelPart.007_Texture_0",
      "primitives": [
        {
          "attributes": {
            "NORMAL": 117,
            "POSITION": 116,
            "TEXCOORD_0": 118
          },
          "indices": 119,
          "material": 0,
          "mode": 4
        }
      ]
    },
    {
      "name": "ReelPart.008_Texture_0",
      "primitives": [
        {
          "attributes": {
            "NORMAL": 121,
            "POSITION": 120,
            "TEXCOORD_0": 122
          },
          "indices": 123,
          "material": 0,
          "mode": 4
        }
      ]
    },
    {
      "name": "ReelPart.009_Texture_0",
      "primitives": [
        {
          "attributes": {
            "NORMAL": 125,
            "POSITION": 124,
            "TEXCOORD_0": 126
          },
          "indices": 127,
          "material": 0,
          "mode": 4
        }
      ]
    },
    {
      "name": "Rod.001_Texture_0",
      "primitives": [
        {
          "attributes": {
            "NORMAL": 129,
            "POSITION": 128,
            "TEXCOORD_0": 130
          },
          "indices": 131,
          "material": 0,
          "mode": 4
        }
      ]
    },
    {
      "name": "Rod.002_Texture_0",
      "primitives": [
        {
          "attributes": {
            "NORMAL": 133,
            "POSITION": 132,
            "TEXCOORD_0": 134
          },
          "indices": 135,
          "material": 0,
          "mode": 4
        }
      ]
    },
    {
      "name": "Rod.003_Texture_0",
      "primitives": [
        {
          "attributes": {
            "NORMAL": 137,
            "POSITION": 136,
            "TEXCOORD_0": 138
          },
          "indices": 139,
          "material": 0,
          "mode": 4
        }
      ]
    },
    {
      "name": "Rod.004_Texture_0",
      "primitives": [
        {
          "attributes": {
            "NORMAL": 141,
            "POSITION": 140,
            "TEXCOORD_0": 142
          },
          "indices": 143,
          "material": 0,
          "mode": 4
        }
      ]
    },
    {
      "name": "RodPart.001_Texture_0",
      "primitives": [
        {
          "attributes": {
            "NORMAL": 145,
            "POSITION": 144,
            "TEXCOORD_0": 146
          },
          "indices": 147,
          "material": 0,
          "mode": 4
        }
      ]
    },
    {
      "name": "RodPart.002_Texture_0",
      "primitives": [
        {
          "attributes": {
            "NORMAL": 149,
            "POSITION": 148,
            "TEXCOORD_0": 150
          },
          "indices": 151,
          "material": 0,
          "mode": 4
        }
      ]
    },
    {
      "name": "RodPart.003_Texture_0",
      "primitives": [
        {
          "attributes": {
            "NORMAL": 153,
            "POSITION": 152,
            "TEXCOORD_0": 154
          },
          "indices": 155,
          "material": 0,
          "mode": 4
        }
      ]
    },
    {
      "name": "RodPart.004_Texture_0",
      "primitives": [
        {
          "attributes": {
            "NORMAL": 157,
            "POSITION": 156,
            "TEXCOORD_0": 158
          },
          "indices": 159,
          "material": 0,
          "mode": 4
        }
      ]
    }
  ],
  "nodes": [
    {
      "children": [
        1
      ],
      "matrix": [
        1.0,
        0.0,
        0.0,
        0.0,
        0.0,
        2.220446049250313e-16,
        -1.0,
        0.0,
        0.0,
        1.0,
        2.220446049250313e-16,
        0.0,
        0.0,
        0.0,
        0.0,
        1.0
      ],
      "name": "Sketchfab_model"
    },
    {
      "children": [
        2
      ],
      "matrix": [
        0.009999999776482582,
        0.0,
        0.0,
        0.0,
        0.0,
        0.0,
        0.009999999776482582,
        0.0,
        0.0,
        -0.009999999776482582,
        0.0,
        0.0,
        0.0,
        0.0,
        0.0,
        1.0
      ],
      "name": "87b204936cf549859807055830a186d9.fbx"
    },
    {
      "children": [
        3,
        5,
        7,
        9,
        11,
        13,
        15,
        17,
        19,
        21,
        23,
        25,
        27,
        29,
        31,
        33,
        35,
        37,
        39,
        41,
        43,
        45,
        47,
        49,
        51,
        53,
        55,
        57,
        59,
        61,
        63,
        65,
        67,
        69,
        71,
        73,
        75,
        77,
        79,
        81
      ],
      "name": "RootNode"
    },
    {
      "children": [
        4
      ],
      "matrix": [
        91.25534357401261,
        -1.762591557290927e-06,
        -40.89576744686271,
        0.0,
        -40.89576744686275,
        -3.581240000217667e-06,
        -91.25534357401256,
        0.0,
        1.4388337465920387e-07,
        99.99999999999993,
        -3.988897612217102e-06,
        0.0,
        1691.682861328125,
        1173.18115234375,
        182.46536254882813,
        1.0
      ],
      "name": "Guides.001"
    },
    {
      "mesh": 0,
      "name": "Guides.001_Texture_0"
    },
    {
      "children": [
        6
      ],
      "matrix": [
        91.25534357401261,
        -1.762591557290927e-06,
        -40.89576744686271,
        0.0,
        -40.89576744686275,
        -3.581240000217667e-06,
        -91.25534357401256,
        0.0,
        1.4388337465920387e-07,
        99.99999999999993,
        -3.988897612217102e-06,
        0.0,
        1691.682861328125,
        1990.0478515625,
        146.3897705078125,
        1.0
      ],
      "name": "Guides.002"
    },
    {
      "mesh": 1,
      "name": "Guides.002_Texture_0"
    },
    {
      "children": [
        8
      ],
      "matrix": [
        91.25533226760132,
        6.685027808587257,
        -40.34569042572077,
        0.0,
        -40.89577402042478,
        14.917039679751243,
        -90.0278712092154,
        0.0,
        -5.575940809077196e-06,
        98.65491538890063,
        16.34648799004932,
        0.0,
        1691.682861328125,
        2535.35009765625,
        159.89837646484375,
        1.0
      ],
      "name": "Guides.003"
    },
    {
      "mesh": 2,
      "name": "Guides.003_Texture_0"
    },
    {
      "children": [
        10
      ],
      "matrix": [
        91.2553379388087,
        20.548844275059583,
        -35.358306273238505,
        0.0,
        -40.895776901226185,
        45.852918249170024,
        -78.8989563915776,
        0.0,
        -8.413792604300419e-06,
        86.45955673854264,
        50.24684118006479,
        0.0,
        1691.682861328125,
        3035.898193359375,
        305.8916015625,
        1.0
      ],
      "name": "Guides.008"
    },
    {
      "mesh": 3,
      "name": "Guides.008_Texture_0"
    },
    {
      "children": [
        12
      ],
      "matrix": [
        91.25534357401261,
        -1.762591557290927e-06,
        -40.89576744686271,
        0.0,
        -40.89576744686275,
        -3.581240000217667e-06,
        -91.25534357401256,
        0.0,
        1.4388337465920387e-07,
        99.99999999999993,
        -3.988897612217102e-06,
        0.0,
        214.8571014404297,
        1173.18115234375,
        182.46536254882813,
        1.0
      ],
      "name": "Guides.009"
    },
    {
      "mesh": 4,
      "name": "Guides.009_Texture_0"
    },
    {
      "children": [
        14
      ],
      "matrix": [
        91.25534357401261,
        -1.762591557290927e-06,
        -40.89576744686271,
        0.0,
        -40.89576744686275,
        -3.581240000217667e-06,
        -91.25534357401256,
        0.0,
        1.4388337465920387e-07,
        99.99999999999993,
        -3.988897612217102e-06,
        0.0,
        214.8571014404297,
        1990.0478515625,
        146.3897705078125,
        1.0
      ],
      "name": "Guides.010"
    },
    {
      "mesh": 5,
      "name": "Guides.010_Texture_0"
    },
    {
      "children": [
        16
      ],
      "matrix": [
        91.25533226760132,
        6.685027808587257,
        -40.34569042572077,
        0.0,
        -40.89577402042478,
        14.917039679751243,
        -90.0278712092154,
        0.0,
        -5.575940809077196e-06,
        98.65491538890063,
        16.34648799004932,
        0.0,
        214.8571014404297,
        2535.35009765625,
        159.89837646484375,
        1.0
      ],
      "name": "Guides.011"
    },
    {
      "mesh": 6,
      "name": "Guides.011_Texture_0"
    },
    {
      "children": [
        18
      ],
      "matrix": [
        91.2553379388087,
        20.548844275059583,
        -35.358306273238505,
        0.0,
        -40.895776901226185,
        45.852918249170024,
        -78.8989563915776,
        0.0,
        -8.413792604300419e-06,
        86.45955673854264,
        50.24684118006479,
        0.0,
        214.8571014404297,
        3035.898193359375,
        305.8916015625,
        1.0
      ],
      "name": "Guides.012"
    },
    {
      "mesh": 7,
      "name": "Guides.012_Texture_0"
    },
    {
      "children": [
        20
      ],
      "matrix": [
        91.25534357401261,
        -1.762591557290927e-06,
        -40.89576744686271,
        0.0,
        -40.89576744686275,
        -3.581240000217667e-06,
        -91.25534357401256,
        0.0,
        1.4388337465920387e-07,
        99.99999999999993,
        -3.988897612217102e-06,
        0.0,
        -1301.3770751953125,
        1173.18115234375,
        182.46536254882813,
        1.0
      ],
      "name": "Guides.013"
    },
    {
      "mesh": 8,
      "name": "Guides.013_Texture_0"
    },
    {
      "children": [
        22
      ],
      "matrix": [
        91.25534357401261,
        -1.762591557290927e-06,
        -40.89576744686271,
        0.0,
        -40.89576744686275,
        -3.581240000217667e-06,
        -91.25534357401256,
        0.0,
        1.4388337465920387e-07,
        99.99999999999993,
        -3.988897612217102e-06,
        0.0,
        -1301.3770751953125,
        1990.0478515625,
        146.3897705078125,
        1.0
      ],
      "name": "Guides.014"
    },
    {
      "mesh": 9,
      "name": "Guides.014_Texture_0"
    },
    {
      "children": [
        24
      ],
      "matrix": [
        91.25533226760132,
        6.685027808587257,
        -40.34569042572077,
        0.0,
        -40.89577402042478,
        14.917039679751243,
        -90.0278712092154,
        0.0,
        -5.575940809077196e-06,
        98.65491538890063,
        16.34648799004932,
        0.0,
        -1301.3770751953125,
        2535.35009765625,
        159.89837646484375,
        1.0
      ],
      "name": "Guides.015"
    },
    {
      "mesh": 10,
      "name": "Guides.015_Texture_0"
    },
    {
      "children": [
        26
      ],
      "matrix": [
        91.2553379388087,
        20.548844275059583,
        -35.358306273238505,
        0.0,
        -40.895776901226185,
        45.852918249170024,
        -78.8989563915776,
        0.0,
        -8.413792604300419e-06,
        86.45955673854264,
        50.24684118006479,
        0.0,
        -1301.3770751953125,
        3035.898193359375,
        305.8916015625,
        1.0
      ],
      "name": "Guides.016"
    },
    {
      "mesh": 11,
      "name": "Guides.016_Texture_0"
    },
    {
      "children": [
        28
      ],
      "matrix": [
        91.25534357401261,
        -1.762591557290927e-06,
        -40.89576744686271,
        0.0,
        -40.89576744686275,
        -3.581240000217667e-06,
        -91.25534357401256,
        0.0,
        1.4388337465920387e-07,
        99.99999999999993,
        -3.988897612217102e-06,
        0.0,
        -3011.928955078125,
        1173.18115234375,
        182.46536254882813,
        1.0
      ],
      "name": "Guides.017"
    },
    {
      "mesh": 12,
      "name": "Guides.017_Texture_0"
    },
    {
      "children": [
        30
      ],
      "matrix": [
        91.25534357401261,
        -1.762591557290927e-06,
        -40.89576744686271,
        0.0,
        -40.89576744686275,
        -3.581240000217667e-06,
        -91.25534357401256,
        0.0,
        1.4388337465920387e-07,
        99.99999999999993,
        -3.988897612217102e-06,
        0.0,
        -3011.928955078125,
        1990.0478515625,
        146.3897705078125,
        1.0
      ],
      "name": "Guides.018"
    },
    {
      "mesh": 13,
      "name": "Guides.018_Texture_0"
    },
    {
      "children": [
        32
      ],
      "matrix": [
        91.25533226760132,
        6.685027808587257,
        -40.34569042572077,
        0.0,
        -40.89577402042478,
        14.917039679751243,
        -90.0278712092154,
        0.0,
        -5.575940809077196e-06,
        98.65491538890063,
        16.34648799004932,
        0.0,
        -3011.928955078125,
        2535.35009765625,
        159.89837646484375,
        1.0
      ],
      "name": "Guides.019"
    },
    {
      "mesh": 14,
      "name": "Guides.019_Texture_0"
    },
    {
      "children": [
        34
      ],
      "matrix": [
        91.2553379388087,
        20.548844275059583,
        -35.358306273238505,
        0.0,
        -40.895776901226185,
        45.852918249170024,
        -78.8989563915776,
        0.0,
        -8.413792604300419e-06,
        86.45955673854264,
        50.24684118006479,
        0.0,
        -3011.928955078125,
        3035.898193359375,
        305.8916015625,
        1.0
      ],
      "name": "Guides.020"
    },
    {
      "mesh": 15,
      "name": "Guides.020_Texture_0"
    },
    {
      "children": [
        36
      ],
      "matrix": [
        100.0,
        0.0,
        0.0,
        0.0,
        0.0,
        -1.629206793918314e-05,
        -99.99999999999868,
        0.0,
        0.0,
        99.99999999999868,
        -1.629206793918314e-05,
        0.0,
        1683.455810546875,
        1166.764892578125,
        224.83787536621094,
        1.0
      ],
      "name": "Line.001"
    },
    {
      "mesh": 16,
      "name": "Line.001_Texture_0"
    },
    {
      "children": [
        38
      ],
      "matrix": [
        100.0,
        0.0,
        0.0,
        0.0,
        0.0,
        -1.629206793918314e-05,
        -99.99999999999868,
        0.0,
        0.0,
        99.99999999999868,
        -1.629206793918314e-05,
        0.0,
        206.62994384765625,
        1166.764892578125,
        224.83787536621094,
        1.0
      ],
      "name": "Line.002"
    },
    {
      "mesh": 17,
      "name": "Line.002_Texture_0"
    },
    {
      "children": [
        40
      ],
      "matrix": [
        100.0,
        0.0,
        0.0,
        0.0,
        -0.0,
        -1.629206793918314e-05,
        -99.99999999999868,
        0.0,
        0.0,
        99.99999999999868,
        -1.629206793918314e-05,
        0.0,
        -1309.604248046875,
        1166.764892578125,
        224.83787536621094,
        1.0
      ],
      "name": "Line.003"
    },
    {
      "mesh": 18,
      "name": "Line.003_Texture_0"
    },
    {
      "children": [
        42
      ],
      "matrix": [
        100.0,
        0.0,
        0.0,
        0.0,
        -0.0,
        -1.629206793918314e-05,
        -99.99999999999868,
        0.0,
        0.0,
        99.99999999999868,
        -1.629206793918314e-05,
        0.0,
        -3020.156494140625,
        1166.764892578125,
        224.83787536621094,
        1.0
      ],
      "name": "Line.004"
    },
    {
      "mesh": 19,
      "name": "Line.004_Texture_0"
    },
    {
      "children": [
        44
      ],
      "matrix": [
        -4.371138984105016e-06,
        -99.99999999999973,
        5.960463766996327e-06,
        0.0,
        -1.6292068227841128e-05,
        -5.960463056453591e-06,
        -99.9999999999985,
        0.0,
        99.99999999999858,
        -4.371139955550163e-06,
        -1.6292067961387602e-05,
        0.0,
        1516.5010986328125,
        858.52734375,
        256.5137939453125,
        1.0
      ],
      "name": "RealHandle.001"
    },
    {
      "mesh": 20,
      "name": "RealHandle.001_Texture_0"
    },
    {
      "children": [
        46
      ],
      "matrix": [
        -4.371138984105016e-06,
        -99.99999999999973,
        5.960463766996327e-06,
        0.0,
        -1.6292068227841128e-05,
        -5.960463056453591e-06,
        -99.9999999999985,
        0.0,
        99.99999999999858,
        -4.371139955550163e-06,
        -1.6292067961387602e-05,
        0.0,
        39.675140380859375,
        858.52734375,
        256.5137939453125,
        1.0
      ],
      "name": "RealHandle.002"
    },
    {
      "mesh": 21,
      "name": "RealHandle.002_Texture_0"
    },
    {
      "children": [
        48
      ],
      "matrix": [
        -4.371138984105016e-06,
        -99.99999999999973,
        5.960463766996327e-06,
        0.0,
        -1.6292068227841128e-05,
        -5.960463056453591e-06,
        -99.9999999999985,
        0.0,
        99.99999999999858,
        -4.371139955550163e-06,
        -1.6292067961387602e-05,
        0.0,
        -1476.55908203125,
        858.52734375,
        256.5137939453125,
        1.0
      ],
      "name": "RealHandle.003"
    },
    {
      "mesh": 22,
      "name": "RealHandle.003_Texture_0"
    },
    {
      "children": [
        50
      ],
      "matrix": [
        -4.371138984105016e-06,
        -99.99999999999973,
        5.960463766996327e-06,
        0.0,
        -1.6292068227841128e-05,
        -5.960463056453591e-06,
        -99.9999999999985,
        0.0,
        99.99999999999858,
        -4.371139955550163e-06,
        -1.6292067961387602e-05,
        0.0,
        -3187.111328125,
        858.52734375,
        256.5137939453125,
        1.0
      ],
      "name": "RealHandle.004"
    },
    {
      "mesh": 23,
      "name": "RealHandle.004_Texture_0"
    },
    {
      "children": [
        52
      ],
      "matrix": [
        100.0,
        0.0,
        0.0,
        0.0,
        0.0,
        -1.629206793918314e-05,
        -99.99999999999868,
        0.0,
        0.0,
        99.99999999999868,
        -1.629206793918314e-05,
        0.0,
        1719.4454345703125,
        830.3873901367188,
        214.25857543945313,
        1.0
      ],
      "name": "ReelPart.002"
    },
    {
      "mesh": 24,
      "name": "ReelPart.002_Texture_0"
    },
    {
      "children": [
        54
      ],
      "matrix": [
        -4.371138984105016e-06,
        -99.99999999999973,
        5.960463766996327e-06,
        0.0,
        -1.6292068227841128e-05,
        -5.960463056453591e-06,
        -99.9999999999985,
        0.0,
        99.99999999999858,
        -4.371139955550163e-06,
        -1.6292067961387602e-05,
        0.0,
        1631.9888916015625,
        831.9049682617188,
        213.89541625976563,
        1.0
      ],
      "name": "ReelPart.003"
    },
    {
      "mesh": 25,
      "name": "ReelPart.003_Texture_0"
    },
    {
      "children": [
        56
      ],
      "matrix": [
        100.0,
        0.0,
        0.0,
        0.0,
        0.0,
        -1.629206793918314e-05,
        -99.99999999999868,
        0.0,
        0.0,
        99.99999999999868,
        -1.629206793918314e-05,
        0.0,
        242.6197052001953,
        830.3873901367188,
        214.25857543945313,
        1.0
      ],
      "name": "ReelPart.004"
    },
    {
      "mesh": 26,
      "name": "ReelPart.004_Texture_0"
    },
    {
      "children": [
        58
      ],
      "matrix": [
        -4.371138984105016e-06,
        -99.99999999999973,
        5.960463766996327e-06,
        0.0,
        -1.6292068227841128e-05,
        -5.960463056453591e-06,
        -99.9999999999985,
        0.0,
        99.99999999999858,
        -4.371139955550163e-06,
        -1.6292067961387602e-05,
        0.0,
        155.16319274902344,
        831.9049682617188,
        213.89541625976563,
        1.0
      ],
      "name": "ReelPart.005"
    },
    {
      "mesh": 27,
      "name": "ReelPart.005_Texture_0"
    },
    {
      "children": [
        60
      ],
      "matrix": [
        100.0,
        0.0,
        0.0,
        0.0,
        -0.0,
        -1.629206793918314e-05,
        -99.99999999999868,
        0.0,
        0.0,
        99.99999999999868,
        -1.629206793918314e-05,
        0.0,
        -1273.614501953125,
        830.3873901367188,
        214.25857543945313,
        1.0
      ],
      "name": "ReelPart.006"
    },
    {
      "mesh": 28,
      "name": "ReelPart.006_Texture_0"
    },
    {
      "children": [
        62
      ],
      "matrix": [
        -4.371138984105016e-06,
        -99.99999999999973,
        5.960463766996327e-06,
        0.0,
        -1.6292068227841128e-05,
        -5.960463056453591e-06,
        -99.9999999999985,
        0.0,
        99.99999999999858,
        -4.371139955550163e-06,
        -1.6292067961387602e-05,
        0.0,
        -1361.071044921875,
        831.9049682617188,
        213.89541625976563,
        1.0
      ],
      "name": "ReelPart.007"
    },
    {
      "mesh": 29,
      "name": "ReelPart.007_Texture_0"
    },
    {
      "children": [
        64
      ],
      "matrix": [
        100.0,
        0.0,
        0.0,
        0.0,
        -0.0,
        -1.629206793918314e-05,
        -99.99999999999868,
        0.0,
        0.0,
        99.99999999999868,
        -1.629206793918314e-05,
        0.0,
        -2984.166259765625,
        830.3873901367188,
        214.25857543945313,
        1.0
      ],
      "name": "ReelPart.008"
    },
    {
      "mesh": 30,
      "name": "ReelPart.008_Texture_0"
    },
    {
      "children": [
        66
      ],
      "matrix": [
        -4.371138984105016e-06,
        -99.99999999999973,
        5.960463766996327e-06,
        0.0,
        -1.6292068227841128e-05,
        -5.960463056453591e-06,
        -99.9999999999985,
        0.0,
        99.99999999999858,
        -4.371139955550163e-06,
        -1.6292067961387602e-05,
        0.0,
        -3071.622802734375,
        831.9049682617188,
        213.89541625976563,
        1.0
      ],
      "name": "ReelPart.009"
    },
    {
      "mesh": 31,
      "name": "ReelPart.009_Texture_0"
    },
    {
      "children": [
        68
      ],
      "matrix": [
        100.0,
        0.0,
        0.0,
        0.0,
        0.0,
        -1.629206793918314e-05,
        -99.99999999999868,
        0.0,
        0.0,
        99.99999999999868,
        -1.629206793918314e-05,
        0.0,
        1685.250244140625,
        1941.744384765625,
        2.7502059936523438,
        1.0
      ],
      "name": "Rod.001"
    },
    {
      "mesh": 32,
      "name": "Rod.001_Texture_0"
    },
    {
      "children": [
        70
      ],
      "matrix": [
        100.0,
        0.0,
        0.0,
        0.0,
        0.0,
        -1.629206793918314e-05,
        -99.99999999999868,
        0.0,
        0.0,
        99.99999999999868,
        -1.629206793918314e-05,
        0.0,
        208.42437744140625,
        1941.744384765625,
        2.7502059936523438,
        1.0
      ],
      "name": "Rod.002"
    },
    {
      "mesh": 33,
      "name": "Rod.002_Texture_0"
    },
    {
      "children": [
        72
      ],
      "matrix": [
        100.0,
        0.0,
        0.0,
        0.0,
        -0.0,
        -1.629206793918314e-05,
        -99.99999999999868,
        0.0,
        0.0,
        99.99999999999868,
        -1.629206793918314e-05,
        0.0,
        -1307.809814453125,
        1941.744384765625,
        2.7502059936523438,
        1.0
      ],
      "name": "Rod.003"
    },
    {
      "mesh": 34,
      "name": "Rod.003_Texture_0"
    },
    {
      "children": [
        74
      ],
      "matrix": [
        100.0,
        0.0,
        0.0,
        0.0,
        -0.0,
        -1.629206793918314e-05,
        -99.99999999999868,
        0.0,
        0.0,
        99.99999999999868,
        -1.629206793918314e-05,
        0.0,
        -3018.362060546875,
        1941.744384765625,
        2.7502059936523438,
        1.0
      ],
      "name": "Rod.004"
    },
    {
      "mesh": 35,
      "name": "Rod.004_Texture_0"
    },
    {
      "children": [
        76
      ],
      "matrix": [
        100.0,
        0.0,
        0.0,
        0.0,
        0.0,
        -1.629206793918314e-05,
        -99.99999999999868,
        0.0,
        0.0,
        99.99999999999868,
        -1.629206793918314e-05,
        0.0,
        1685.250244140625,
        1941.744384765625,
        2.7502059936523438,
        1.0
      ],
      "name": "RodPart.001"
    },
    {
      "mesh": 36,
      "name": "RodPart.001_Texture_0"
    },
    {
      "children": [
        78
      ],
      "matrix": [
        100.0,
        0.0,
        0.0,
        0.0,
        0.0,
        -1.629206793918314e-05,
        -99.99999999999868,
        0.0,
        0.0,
        99.99999999999868,
        -1.629206793918314e-05,
        0.0,
        208.42437744140625,
        1941.744384765625,
        2.7502059936523438,
        1.0
      ],
      "name": "RodPart.002"
    },
    {
      "mesh": 37,
      "name": "RodPart.002_Texture_0"
    },
    {
      "children": [
        80
      ],
      "matrix": [
        100.0,
        0.0,
        0.0,
        0.0,
        -0.0,
        -1.629206793918314e-05,
        -99.99999999999868,
        0.0,
        0.0,
        99.99999999999868,
        -1.629206793918314e-05,
        0.0,
        -1307.809814453125,
        1941.744384765625,
        2.7502059936523438,
        1.0
      ],
      "name": "RodPart.003"
    },
    {
      "mesh": 38,
      "name": "RodPart.003_Texture_0"
    },
    {
      "children": [
        82
      ],
      "matrix": [
        100.0,
        0.0,
        0.0,
        0.0,
        -0.0,
        -1.629206793918314e-05,
        -99.99999999999868,
        0.0,
        0.0,
        99.99999999999868,
        -1.629206793918314e-05,
        0.0,
        -3018.362060546875,
        1941.744384765625,
        2.7502059936523438,
        1.0
      ],
      "name": "RodPart.004"
    },
    {
      "mesh": 39,
      "name": "RodPart.004_Texture_0"
    }
  ],
  "samplers": [
    {
      "magFilter": 9729,
      "minFilter": 9987,
      "wrapS": 10497,
      "wrapT": 10497
    }
  ],
  "scene": 0,
  "scenes": [
    {
      "name": "Sketchfab_Scene",
      "nodes": [
        0
      ]
    }
  ],
  "textures": [
    {
      "sampler": 0,
      "source": 0
    }
  ]
}
